<?xml version="1.0" encoding="UTF-8"?>
<svg id="Layer_1" data-name="Layer 1" xmlns="http://www.w3.org/2000/svg" version="1.1" viewBox="0 0 31.9 32">
  <defs>
    <style>
      .sass-cls-1 {
        fill: #cd6799;
        stroke-width: 0px;
      }
    </style>
  </defs>
  <path class="sass-cls-1" d="M27.1,17.2c-1.1,0-2,.3-2.8.6-.3-.6-.6-1.1-.6-1.4,0-.4-.1-.7,0-1.2,0-.5.4-1.3.4-1.3s0-.3-.7-.3-1.2.1-1.2.3-.2.5-.3.9c-.1.6-1.2,2.6-1.9,3.6-.2-.4-.4-.8-.4-1.1,0-.4-.1-.7,0-1.2,0-.5.4-1.3.4-1.3s0-.3-.7-.3-1.2.1-1.2.3-.1.5-.3.9c-.1.4-1.6,3.7-2,4.6-.2.4-.4.8-.5,1h0s0,0,0,0c-.1.2-.2.3-.2.3h0c0,.2-.2.3-.2.3s0-.4,0-1c.2-1.2.8-3,.8-3,0,0,.1-.3-.3-.5-.4-.2-.6.1-.6.1s0,0,0,0c0,0,.5-2-.9-2s-2.1,1-2.7,1.9c-.4.2-1.2.7-2.1,1.1-.3.2-.7.4-1,.5,0,0,0,0,0,0-1.7-1.8-4.9-3.1-4.8-5.6,0-.9.4-3.3,6.1-6.1,4.7-2.3,8.5-1.7,9.2-.3.9,2-2,5.8-6.9,6.4-1.9.2-2.8-.5-3.1-.8-.3-.3-.3-.3-.4-.2-.2,0,0,.3,0,.5.1.4.7,1.1,1.8,1.4.9.3,3.1.5,5.7-.6,3-1.1,5.3-4.3,4.6-7-.7-2.7-5.2-3.6-9.4-2.1-2.5.9-5.3,2.3-7.2,4.2C.8,11,.4,12.9.6,13.7c.5,2.8,4.5,4.7,6,6,0,0-.2,0-.2.1-.8.4-3.8,1.9-4.5,3.6-.8,1.9.1,3.2.8,3.4,2,.6,4.1-.4,5.2-2.1,1.1-1.7,1-3.8.5-4.8,0,0,0,0,0,0,.2-.1.4-.2.6-.4.4-.2.8-.5,1.1-.6-.2.5-.3,1.1-.4,2,0,1.1.3,2.4.9,3,.3.2.6.2.7.2.7,0,1-.6,1.3-1.2.4-.8.8-1.7.8-1.7,0,0-.5,2.5.8,2.5s.9-.6,1.1-.9h0s0,0,0,0c0,0,0-.1,0-.1h0c.2-.3.6-1,1.2-2.2.8-1.5,1.5-3.4,1.5-3.4,0,0,0,.5.3,1.2.1.5.4,1,.6,1.4-.2.3-.3.4-.3.4h0c-.1.2-.3.4-.5.6-.6.7-1.3,1.6-1.4,1.8-.1.3,0,.5.1.7.2.1.5.1.8.1.6,0,.9-.2,1.1-.3.3-.1.6-.3,1-.5.6-.4,1-1.1.9-1.9,0-.5-.2-.9-.4-1.4,0,0,.1-.2.2-.2,1-1.4,1.7-2.9,1.7-2.9,0,0,0,.5.3,1.2.1.4.3.8.5,1.2-.9.7-1.4,1.6-1.6,2.1-.4,1,0,1.5.4,1.6.2,0,.6,0,.8-.2.3-.1.7-.3,1-.5.6-.4,1.2-1.1,1.1-1.9,0-.4-.1-.8-.3-1.1.8-.3,1.7-.5,3-.3,2.7.3,3.2,2,3.1,2.7s-.7,1.1-.8,1.2-.2.2-.2.2c0,.1.1.1.3,0,.2,0,1.4-.6,1.5-1.9,0-1.7-1.5-3.5-4.3-3.4ZM6.4,24.2c-.9,1-2.1,1.3-2.7,1-.6-.3-.3-1.8.7-2.8.7-.6,1.5-1.2,2.1-1.6.1,0,.3-.2.6-.3,0,0,0,0,0,0h0s0,0,.1,0c.4,1.5,0,2.7-.9,3.8ZM12.9,19.8c-.3.8-1,2.7-1.3,2.6-.3,0-.5-1.6,0-3,.2-.7.8-1.6,1.1-1.9.5-.5,1-.7,1.1-.5.2.3-.6,2.4-.8,2.9ZM18.2,22.3c-.1,0-.3.1-.3,0,0,0,0-.1,0-.1,0,0,.7-.7.9-1,.2-.2.3-.4.5-.7h0c0,.9-.8,1.5-1.2,1.7ZM22.3,21.4c0,0,0-.3.2-1,.1-.3.4-.7.9-1.2,0,.2,0,.4,0,.5,0,1.1-.8,1.5-1.2,1.7Z"/>
</svg>